<svg id="Layer_1" xmlns="http://www.w3.org/2000/svg" viewBox="0 0 2000 1412.9"><style>.st0{fill:#DD40CE;} .st1{fill:#D834BA;} .st2{fill:#BF32AB;} .st3{fill:#A8389D;} .st4{fill:#91338C;} .st5{fill:#803382;} .st6{fill:#9942A0;} .st7{fill:#C146C1;}</style><path class="st0" d="M920.4 1310.3c-16 0-29-13.1-29-29V135.6c0-16 13.1-29 29-29 16 0 29 13.1 29 29v1145.7c.1 15.9-13 29-29 29z"/><path class="st1" d="M1053.3 1230.8h9.7c16 0 29-13.1 29-29V215c0-16-13.1-29-29-29h-9.7c-16 0-29 13.1-29 29v986.7c0 16 13 29.1 29 29.1z"/><path class="st2" d="M787.6 1080.9h-9.7c-16 0-29-13.1-29-29V365c0-16 13.1-29 29-29h9.7c16 0 29 13.1 29 29v686.8c0 16-13.1 29.1-29 29.1zM1200.6 1114.2h-9.7c-16 0-29-13.1-29-29V331.6c0-16 13.1-29 29-29h9.7c16 0 29 13.1 29 29v753.6c.1 16-13 29-29 29z"/><path class="st3" d="M649.9 998.1h-9.7c-16 0-29-13.1-29-29V447.7c0-16 13.1-29 29-29h9.7c16 0 29 13.1 29 29V969c0 16-13.1 29.1-29 29.1zM1338.3 998.1h-9.7c-16 0-29-13.1-29-29V447.7c0-16 13.1-29 29-29h9.7c16 0 29 13.1 29 29V969c.1 16-13 29.1-29 29.1z"/><path class="st4" d="M1476 937.9h-9.7c-16 0-29-13.1-29-29v-401c0-16 13.1-29 29-29h9.7c16 0 29 13.1 29 29v400.9c.1 16-13 29.1-29 29.1z"/><path class="st5" d="M1613.7 873.9h-9.7c-16 0-29-13.1-29-29v-273c0-16 13.1-29 29-29h9.7c16 0 29 13.1 29 29v273c.1 16-13 29-29 29z"/><path class="st6" d="M1741.8 891.5h9.7c16 0 29-13.1 29-29V554.3c0-16-13.1-29-29-29h-9.7c-16 0-29 13.1-29 29v308.1c-.1 16 13 29.1 29 29.1z"/><path class="st4" d="M512.2 908.8h-9.7c-16 0-29-13.1-29-29V537c0-16 13.1-29 29-29h9.7c16 0 29 13.1 29 29v342.7c0 16-13.1 29.1-29 29.1z"/><path class="st5" d="M364.8 835.9h9.7c16 0 29-13.1 29-29v-197c0-16-13.1-29-29-29h-9.7c-16 0-29 13.1-29 29v197c0 15.9 13 29 29 29z"/><path class="st6" d="M236.8 854.7h-9.7c-16 0-29-13.1-29-29V591.2c0-16 13.1-29 29-29h9.7c16 0 29 13.1 29 29v234.5c0 15.9-13.1 29-29 29z"/><circle class="st7" cx="86.1" cy="708.3" r="65.8"/><circle class="st7" cx="1902" cy="707.1" r="83.9"/></svg>